<svg width="230" height="24" viewBox="0 0 230 24" fill="none" xmlns="http://www.w3.org/2000/svg">
<path d="M0.528 23V0.439999H3.952L11.952 15.192L19.92 0.439999H23.28V23H19.568V7.8L13.104 19.576H10.704L4.24 7.864V23H0.528ZM31.5733 23L35.0613 16.184L25.3332 0.439999H29.7173L36.9813 12.408L43.0933 0.439999H47.3173L35.8293 23H31.5733ZM58.8975 23.32C56.5508 23.32 54.5348 22.8507 52.8495 21.912C51.1855 20.952 49.9055 19.608 49.0095 17.88C48.1135 16.1307 47.6655 14.072 47.6655 11.704C47.6655 9.336 48.1135 7.288 49.0095 5.56C49.9055 3.832 51.1855 2.49867 52.8495 1.56C54.5348 0.599999 56.5508 0.119999 58.8975 0.119999C60.4122 0.119999 61.8415 0.354666 63.1855 0.823999C64.5508 1.29333 65.6708 1.96533 66.5455 2.84L65.2015 6.104C64.2415 5.29333 63.2602 4.70667 62.2575 4.344C61.2548 3.96 60.1775 3.768 59.0255 3.768C56.7428 3.768 55.0042 4.46133 53.8095 5.848C52.6148 7.21333 52.0175 9.16533 52.0175 11.704C52.0175 14.2427 52.6148 16.2053 53.8095 17.592C55.0042 18.9787 56.7428 19.672 59.0255 19.672C60.1775 19.672 61.2548 19.4907 62.2575 19.128C63.2602 18.744 64.2415 18.1467 65.2015 17.336L66.5455 20.6C65.6708 21.4533 64.5508 22.1253 63.1855 22.616C61.8415 23.0853 60.4122 23.32 58.8975 23.32ZM79.826 23.32C77.65 23.32 75.7407 22.84 74.098 21.88C72.4767 20.92 71.218 19.576 70.322 17.848C69.426 16.0987 68.978 14.0507 68.978 11.704C68.978 9.336 69.426 7.288 70.322 5.56C71.218 3.832 72.4767 2.49867 74.098 1.56C75.7193 0.599999 77.6287 0.119999 79.826 0.119999C82.0233 0.119999 83.9327 0.599999 85.554 1.56C87.1753 2.49867 88.434 3.832 89.33 5.56C90.226 7.288 90.674 9.32533 90.674 11.672C90.674 14.04 90.226 16.0987 89.33 17.848C88.434 19.576 87.1753 20.92 85.554 21.88C83.9327 22.84 82.0233 23.32 79.826 23.32ZM79.826 19.8C81.8953 19.8 83.506 19.0853 84.658 17.656C85.81 16.2267 86.386 14.2427 86.386 11.704C86.386 9.144 85.81 7.16 84.658 5.752C83.5273 4.344 81.9167 3.64 79.826 3.64C77.7567 3.64 76.146 4.344 74.994 5.752C73.842 7.16 73.266 9.144 73.266 11.704C73.266 14.2427 73.842 16.2267 74.994 17.656C76.146 19.0853 77.7567 19.8 79.826 19.8ZM94.839 23V0.439999H104.631C107.106 0.439999 109.015 1.05867 110.359 2.296C111.703 3.53333 112.375 5.26133 112.375 7.48C112.375 9.69867 111.703 11.4373 110.359 12.696C109.015 13.9333 107.106 14.552 104.631 14.552H98.935V23H94.839ZM98.935 11.32H103.991C106.935 11.32 108.407 10.04 108.407 7.48C108.407 4.94133 106.935 3.672 103.991 3.672H98.935V11.32ZM115.714 23V0.439999H125.57C127.938 0.439999 129.773 0.962666 131.074 2.008C132.375 3.032 133.026 4.46133 133.026 6.296C133.026 7.512 132.717 8.55733 132.098 9.432C131.479 10.3067 130.626 10.9467 129.538 11.352C130.818 11.7147 131.81 12.3547 132.514 13.272C133.239 14.168 133.602 15.3093 133.602 16.696C133.602 18.7013 132.919 20.2587 131.554 21.368C130.21 22.456 128.333 23 125.922 23H115.714ZM119.65 10.008H124.866C127.661 10.008 129.058 8.93067 129.058 6.776C129.058 4.62133 127.661 3.544 124.866 3.544H119.65V10.008ZM119.65 19.896H125.41C128.226 19.896 129.634 18.7653 129.634 16.504C129.634 14.2427 128.226 13.112 125.41 13.112H119.65V19.896ZM147.857 23.32C145.681 23.32 143.772 22.84 142.129 21.88C140.508 20.92 139.249 19.576 138.353 17.848C137.457 16.0987 137.009 14.0507 137.009 11.704C137.009 9.336 137.457 7.288 138.353 5.56C139.249 3.832 140.508 2.49867 142.129 1.56C143.751 0.599999 145.66 0.119999 147.857 0.119999C150.055 0.119999 151.964 0.599999 153.585 1.56C155.207 2.49867 156.465 3.832 157.361 5.56C158.257 7.288 158.705 9.32533 158.705 11.672C158.705 14.04 158.257 16.0987 157.361 17.848C156.465 19.576 155.207 20.92 153.585 21.88C151.964 22.84 150.055 23.32 147.857 23.32ZM147.857 19.8C149.927 19.8 151.537 19.0853 152.689 17.656C153.841 16.2267 154.417 14.2427 154.417 11.704C154.417 9.144 153.841 7.16 152.689 5.752C151.559 4.344 149.948 3.64 147.857 3.64C145.788 3.64 144.177 4.344 143.025 5.752C141.873 7.16 141.297 9.144 141.297 11.704C141.297 14.2427 141.873 16.2267 143.025 17.656C144.177 19.0853 145.788 19.8 147.857 19.8ZM170.134 23.32C168.257 23.32 166.593 23.0853 165.142 22.616C163.692 22.1253 162.433 21.4533 161.366 20.6L162.646 17.496C163.585 18.264 164.641 18.8507 165.814 19.256C166.988 19.64 168.321 19.832 169.814 19.832C171.585 19.832 172.886 19.544 173.718 18.968C174.572 18.392 174.998 17.5173 174.998 16.344C174.998 14.232 173.59 13.176 170.774 13.176H165.302V9.944H170.23C173.025 9.944 174.422 8.90933 174.422 6.84C174.422 5.83733 174.049 5.048 173.302 4.472C172.577 3.87466 171.425 3.576 169.846 3.576C168.609 3.576 167.404 3.768 166.23 4.152C165.078 4.536 164.044 5.10133 163.126 5.848L161.846 2.776C162.849 1.92267 164.086 1.272 165.558 0.823999C167.052 0.354666 168.63 0.119999 170.294 0.119999C173.025 0.119999 175.073 0.695999 176.438 1.848C177.804 2.97867 178.486 4.46133 178.486 6.296C178.486 7.512 178.166 8.55733 177.526 9.432C176.908 10.3067 176.065 10.9467 174.998 11.352C176.257 11.7147 177.238 12.3547 177.942 13.272C178.668 14.168 179.03 15.3093 179.03 16.696C179.03 18.7013 178.305 20.312 176.854 21.528C175.404 22.7227 173.164 23.32 170.134 23.32ZM183.152 23V0.439999H186.96V16.312L199.088 0.439999H202.16V23H198.352V7.064L186.192 23H183.152ZM207.153 23V0.439999H210.577L218.577 15.192L226.545 0.439999H229.905V23H226.193V7.8L219.729 19.576H217.329L210.865 7.864V23H207.153Z" fill="#1F2022"/>
</svg>
